<?xml version="1.0" encoding="UTF-8" standalone="no"?>
<svg
   xmlns:serif="http://www.serif.com/"
   xmlns:dc="http://purl.org/dc/elements/1.1/"
   xmlns:cc="http://creativecommons.org/ns#"
   xmlns:rdf="http://www.w3.org/1999/02/22-rdf-syntax-ns#"
   xmlns:svg="http://www.w3.org/2000/svg"
   xmlns="http://www.w3.org/2000/svg"
   xmlns:sodipodi="http://sodipodi.sourceforge.net/DTD/sodipodi-0.dtd"
   xmlns:inkscape="http://www.inkscape.org/namespaces/inkscape"
   width="4096"
   height="4096"
   viewBox="0 0 592 154"
   version="1.1"
   xml:space="preserve"
   style="clip-rule:evenodd;fill-rule:evenodd;stroke-linejoin:round;stroke-miterlimit:1.41420996"
   id="svg19"
   sodipodi:docname="allianz-logo.svg"
   inkscape:version="0.92.4 (5da689c313, 2019-01-14)"><metadata
   id="metadata25"><rdf:RDF><cc:Work
       rdf:about=""><dc:format>image/svg+xml</dc:format><dc:type
         rdf:resource="http://purl.org/dc/dcmitype/StillImage" /><dc:title></dc:title></cc:Work></rdf:RDF></metadata><defs
   id="defs23" /><sodipodi:namedview
   pagecolor="#ffffff"
   bordercolor="#666666"
   borderopacity="1"
   objecttolerance="10"
   gridtolerance="10"
   guidetolerance="10"
   inkscape:pageopacity="0"
   inkscape:pageshadow="2"
   inkscape:window-width="1600"
   inkscape:window-height="837"
   id="namedview21"
   showgrid="false"
   units="px"
   inkscape:zoom="0.099735501"
   inkscape:cx="943.9769"
   inkscape:cy="1649.0113"
   inkscape:window-x="-8"
   inkscape:window-y="-8"
   inkscape:window-maximized="1"
   inkscape:current-layer="svg19" />
    <g
   id="Allianz"
   transform="matrix(0.7592855,0,0,0.7592855,-7.9633015,-84.325549)">
        <path
   id="A"
   d="m 157.907,218.515 h -21.699 l 11.528,-37.498 z m -31.87,37.906 6.781,-22.852 h 27.801 l 6.781,22.852 h 23.056 l -24.412,-86.728 c -1.356,-5.696 -4.068,-7.527 -10.171,-7.527 h -33.905 v 7.798 h 2.713 c 4.068,0 6.102,1.288 6.102,4.408 0,1.966 0,3.255 -2.034,7.933 l -24.411,74.116"
   style="fill:#003781"
   inkscape:connector-curvature="0" />
        <path
   id="l"
   d="m 219.614,256.421 v -87.338 c 0,-4.544 -2.713,-6.917 -7.459,-6.917 h -21.021 v 7.798 h 1.356 c 4.068,0 6.103,1.695 6.103,5.357 v 81.1"
   style="fill:#003781;fill-rule:nonzero"
   inkscape:connector-curvature="0" />
        <path
   id="l1"
   serif:id="l"
   d="m 257.587,256.421 v -87.338 c 0,-4.544 -2.713,-6.917 -7.459,-6.917 h -21.021 v 7.798 h 1.356 c 4.069,0 6.103,1.695 6.103,5.357 v 81.1"
   style="fill:#003781;fill-rule:nonzero"
   inkscape:connector-curvature="0" />
        <path
   id="i"
   d="m 296.238,170.507 c 0,-6.239 -4.747,-9.901 -12.206,-9.901 -8.137,0 -12.205,3.662 -12.205,9.901 0,6.374 4.068,10.103 12.205,10.103 7.459,0 12.206,-3.729 12.206,-10.103 m -0.678,85.914 v -63.605 c 0,-4.408 -2.712,-6.985 -6.781,-6.985 h -21.021 v 7.663 h 1.356 c 4.069,0 5.425,1.695 5.425,5.56 v 57.367"
   style="fill:#003781"
   inkscape:connector-curvature="0" />
        <path
   id="a"
   d="m 345.739,222.177 v 14.105 c -4.069,4.068 -8.815,6.374 -12.884,6.374 -4.069,0 -6.103,-1.967 -6.103,-7.256 0,-5.832 1.356,-8.069 6.103,-9.9 3.39,-1.424 6.781,-2.306 12.884,-3.323 m -29.836,-16.884 2.034,-0.814 c 5.425,-2.17 8.815,-2.984 12.884,-3.73 2.034,-0.271 4.746,-0.542 6.103,-0.542 6.78,0 8.815,2.238 8.815,8.476 v 1.763 c -9.494,1.56 -12.206,2.102 -17.631,3.255 -2.712,0.678 -5.424,1.56 -8.137,2.712 -8.815,3.526 -12.884,10.307 -12.884,20.953 0,13.359 5.425,19.733 17.631,19.733 4.747,0 9.493,-1.085 12.884,-3.255 3.39,-1.559 4.746,-2.373 8.815,-6.103 v 2.17 c 0,4.408 2.034,6.51 6.103,6.51 h 20.342 v -7.256 h -0.678 c -4.068,0 -6.102,-1.831 -6.102,-5.492 v -34.651 c 0,-18.037 -6.103,-24.14 -23.734,-24.14 -6.103,0 -11.527,0.678 -16.952,1.967 -5.425,1.288 -8.137,2.237 -14.24,5.424"
   style="fill:#003781"
   inkscape:connector-curvature="0" />
        <path
   id="n"
   d="m 404.733,256.421 v -47.873 c 4.746,-4.408 8.137,-6.103 12.884,-6.103 4.746,0 6.102,2.034 6.102,9.222 v 44.754 h 21.021 v -48.145 c 0,-9.9 -1.356,-14.172 -4.068,-17.901 -3.391,-3.662 -7.459,-5.357 -13.562,-5.357 -8.137,0 -14.24,2.983 -23.733,11.188 v -3.797 c 0,-4.408 -2.035,-6.578 -6.103,-6.578 h -20.343 v 7.663 h 0.678 c 4.069,0 6.103,1.695 6.103,5.56 v 57.367"
   style="fill:#003781"
   inkscape:connector-curvature="0" />
        <g
   id="z"
   transform="matrix(6.78093,0,0,-6.78093,-9776.15,5300.88)">
            <path
   d="m 1516.9,745.91 h -4.6 l 4.4,6.28 v 2.14 h -6.6 c -0.8,0 -1.1,-0.32 -1.1,-1.09 v -1.89 h 1.1 v 0.21 c 0,0.57 0.3,0.8 0.9,0.8 h 2.4 l -4.5,-6.28 v -2.16 h 8"
   style="fill:#003781;fill-rule:nonzero"
   id="path8"
   inkscape:connector-curvature="0" />
        </g>
        <g
   id="Eagle"
   transform="matrix(6.78093,0,0,-6.78093,-9776.15,5300.88)">
            <clipPath
   id="_clip1">
                <rect
   x="1457.1"
   y="739.09998"
   width="87.300003"
   height="22.6"
   id="rect11" />
            </clipPath>
            <g
   clip-path="url(#_clip1)"
   id="g15">
                <path
   id="path37647"
   d="m 1534.6,744.49 v 11.78 c 0,0.95 -0.4,1.26 -1.3,1.26 h -2.7 v -1.3 h 0.3 c 0.5,0 0.7,-0.19 0.7,-0.77 v -10.97 z m 1.6,0 h 2.9 v 8.89 c 0,0.9 -0.4,1.26 -1.3,1.26 h -1.6 z m -6.2,0 v 10.15 h -1.6 c -0.9,0 -1.3,-0.36 -1.3,-1.26 v -8.89 z m 12.5,5.92 c 0,-5.51 -4,-9.53 -9.4,-9.53 -5.4,0 -9.4,4.02 -9.4,9.53 0,5.51 4,9.53 9.4,9.53 5.4,0 9.4,-4.02 9.4,-9.53 m 1.9,0 c 0,6.45 -4.8,11.29 -11.3,11.29 -6.4,0 -11.3,-4.84 -11.3,-11.29 0,-6.47 4.9,-11.31 11.3,-11.31 6.5,0 11.3,4.84 11.3,11.31"
   style="fill:#003781"
   inkscape:connector-curvature="0" />
            </g>
        </g>
    </g>
</svg>